{
	"asset":{
		"generator":"Khronos glTF Blender I/O v3.5.30",
		"version":"2.0"
	},
	"extensionsUsed":[
		"KHR_materials_specular"
	],
	"scene":0,
	"scenes":[
		{
			"name":"Scene",
			"nodes":[
				2,
				9
			]
		}
	],
	"nodes":[
		{
			"mesh":0,
			"name":"Object_2"
		},
		{
			"mesh":1,
			"name":"Object_3"
		},
		{
			"children":[
				0,
				1
			],
			"name":"Retro computer",
			"rotation":[
				-0.70710688829422,
				0,
				0,
				0.7071066498756409
			],
			"scale":[
				5,
				4.999999046325684,
				4.999999046325684
			],
			"translation":[
				0,
				-0.2899777591228485,
				-3.1420063972473145
			]
		},
		{
			"mesh":2,
			"name":"Box002_default_0"
		},
		{
			"children":[
				3
			],
			"name":"Box002",
			"rotation":[
				-0.70710688829422,
				0,
				0,
				0.7071066498756409
			]
		},
		{
			"mesh":3,
			"name":"Group18985_default_0"
		},
		{
			"children":[
				5
			],
			"name":"Group18985",
			"rotation":[
				-0.70710688829422,
				0,
				0,
				0.7071066498756409
			]
		},
		{
			"mesh":4,
			"name":"Object001_default_0"
		},
		{
			"children":[
				7
			],
			"name":"Object001",
			"rotation":[
				-0.70710688829422,
				0,
				0,
				0.7071066498756409
			]
		},
		{
			"children":[
				4,
				6,
				8
			],
			"name":"Shiba",
			"rotation":[
				0,
				0.9999383687973022,
				0,
				0.011110427789390087
			]
		}
	],
	"materials":[
		{
			"doubleSided":true,
			"name":"None",
			"pbrMetallicRoughness":{
				"baseColorTexture":{
					"index":0
				}
			}
		},
		{
			"doubleSided":true,
			"extensions":{
				"KHR_materials_specular":{
					"specularColorFactor":[
						1.3272726535797117,
						1.3272726535797117,
						1.3272726535797117
					]
				}
			},
			"name":"default",
			"pbrMetallicRoughness":{
				"baseColorTexture":{
					"index":1
				},
				"metallicFactor":0.33181819319725037
			}
		}
	],
	"meshes":[
		{
			"name":"Object_0",
			"primitives":[
				{
					"attributes":{
						"POSITION":0,
						"TEXCOORD_0":1,
						"NORMAL":2
					},
					"indices":3,
					"material":0
				}
			]
		},
		{
			"name":"Object_1",
			"primitives":[
				{
					"attributes":{
						"POSITION":4,
						"TEXCOORD_0":5,
						"NORMAL":6
					},
					"indices":7,
					"material":0
				}
			]
		},
		{
			"name":"Box002_default_0",
			"primitives":[
				{
					"attributes":{
						"POSITION":8,
						"TEXCOORD_0":9,
						"NORMAL":10
					},
					"indices":11,
					"material":1
				}
			]
		},
		{
			"name":"Group18985_default_0",
			"primitives":[
				{
					"attributes":{
						"POSITION":12,
						"TEXCOORD_0":13,
						"NORMAL":14
					},
					"indices":15,
					"material":1
				}
			]
		},
		{
			"name":"Object001_default_0",
			"primitives":[
				{
					"attributes":{
						"POSITION":16,
						"TEXCOORD_0":17,
						"NORMAL":18
					},
					"indices":19,
					"material":1
				}
			]
		}
	],
	"textures":[
		{
			"sampler":0,
			"source":0
		},
		{
			"sampler":1,
			"source":1
		}
	],
	"images":[
		{
			"mimeType":"image/png",
			"name":"None_diffuse",
			"uri":"textures/None_diffuse.png"
		},
		{
			"mimeType":"image/png",
			"name":"default_baseColor",
			"uri":"textures/default_baseColor.png"
		}
	],
	"accessors":[
		{
			"bufferView":0,
			"componentType":5126,
			"count":424,
			"max":[
				0.08351399749517441,
				-0.177496999502182,
				0.13024300336837769
			],
			"min":[
				-0.16256000101566315,
				-0.39213699102401733,
				-0.06348299980163574
			],
			"type":"VEC3"
		},
		{
			"bufferView":1,
			"componentType":5126,
			"count":424,
			"type":"VEC2"
		},
		{
			"bufferView":2,
			"componentType":5126,
			"count":424,
			"type":"VEC3"
		},
		{
			"bufferView":3,
			"componentType":5123,
			"count":606,
			"type":"SCALAR"
		},
		{
			"bufferView":4,
			"componentType":5126,
			"count":21993,
			"max":[
				0.35146600008010864,
				0.09704700112342834,
				0.1300390064716339
			],
			"min":[
				-0.35146600008010864,
				-0.5712090134620667,
				-0.13024300336837769
			],
			"type":"VEC3"
		},
		{
			"bufferView":5,
			"componentType":5126,
			"count":21993,
			"type":"VEC2"
		},
		{
			"bufferView":6,
			"componentType":5126,
			"count":21993,
			"type":"VEC3"
		},
		{
			"bufferView":7,
			"componentType":5123,
			"count":70938,
			"type":"SCALAR"
		},
		{
			"bufferView":8,
			"componentType":5126,
			"count":2145,
			"max":[
				0.4604490101337433,
				1.4105160236358643,
				0.3757419288158417
			],
			"min":[
				-0.4604490101337433,
				-0.3642579913139343,
				-1.0053009986877441
			],
			"type":"VEC3"
		},
		{
			"bufferView":9,
			"componentType":5126,
			"count":2145,
			"type":"VEC2"
		},
		{
			"bufferView":10,
			"componentType":5126,
			"count":2145,
			"type":"VEC3"
		},
		{
			"bufferView":11,
			"componentType":5123,
			"count":11124,
			"type":"SCALAR"
		},
		{
			"bufferView":12,
			"componentType":5126,
			"count":256,
			"max":[
				0.31733599305152893,
				0.47673898935317993,
				-0.0806410014629364
			],
			"min":[
				-0.31733599305152893,
				-0.058437999337911606,
				-0.5076500177383423
			],
			"type":"VEC3"
		},
		{
			"bufferView":13,
			"componentType":5126,
			"count":256,
			"type":"VEC2"
		},
		{
			"bufferView":14,
			"componentType":5126,
			"count":256,
			"type":"VEC3"
		},
		{
			"bufferView":15,
			"componentType":5123,
			"count":1152,
			"type":"SCALAR"
		},
		{
			"bufferView":16,
			"componentType":5126,
			"count":130,
			"max":[
				0.1959719955921173,
				-0.12931400537490845,
				0.05310700088739395
			],
			"min":[
				-0.1959719955921173,
				-0.20747999846935272,
				-0.10322500020265579
			],
			"type":"VEC3"
		},
		{
			"bufferView":17,
			"componentType":5126,
			"count":130,
			"type":"VEC2"
		},
		{
			"bufferView":18,
			"componentType":5126,
			"count":130,
			"type":"VEC3"
		},
		{
			"bufferView":19,
			"componentType":5123,
			"count":672,
			"type":"SCALAR"
		}
	],
	"bufferViews":[
		{
			"buffer":0,
			"byteLength":5088,
			"byteOffset":0,
			"target":34962
		},
		{
			"buffer":0,
			"byteLength":3392,
			"byteOffset":5088,
			"target":34962
		},
		{
			"buffer":0,
			"byteLength":5088,
			"byteOffset":8480,
			"target":34962
		},
		{
			"buffer":0,
			"byteLength":1212,
			"byteOffset":13568,
			"target":34963
		},
		{
			"buffer":0,
			"byteLength":263916,
			"byteOffset":14780,
			"target":34962
		},
		{
			"buffer":0,
			"byteLength":175944,
			"byteOffset":278696,
			"target":34962
		},
		{
			"buffer":0,
			"byteLength":263916,
			"byteOffset":454640,
			"target":34962
		},
		{
			"buffer":0,
			"byteLength":141876,
			"byteOffset":718556,
			"target":34963
		},
		{
			"buffer":0,
			"byteLength":25740,
			"byteOffset":860432,
			"target":34962
		},
		{
			"buffer":0,
			"byteLength":17160,
			"byteOffset":886172,
			"target":34962
		},
		{
			"buffer":0,
			"byteLength":25740,
			"byteOffset":903332,
			"target":34962
		},
		{
			"buffer":0,
			"byteLength":22248,
			"byteOffset":929072,
			"target":34963
		},
		{
			"buffer":0,
			"byteLength":3072,
			"byteOffset":951320,
			"target":34962
		},
		{
			"buffer":0,
			"byteLength":2048,
			"byteOffset":954392,
			"target":34962
		},
		{
			"buffer":0,
			"byteLength":3072,
			"byteOffset":956440,
			"target":34962
		},
		{
			"buffer":0,
			"byteLength":2304,
			"byteOffset":959512,
			"target":34963
		},
		{
			"buffer":0,
			"byteLength":1560,
			"byteOffset":961816,
			"target":34962
		},
		{
			"buffer":0,
			"byteLength":1040,
			"byteOffset":963376,
			"target":34962
		},
		{
			"buffer":0,
			"byteLength":1560,
			"byteOffset":964416,
			"target":34962
		},
		{
			"buffer":0,
			"byteLength":1344,
			"byteOffset":965976,
			"target":34963
		}
	],
	"samplers":[
		{
			"magFilter":9729,
			"minFilter":9987
		},
		{
			"magFilter":9729,
			"minFilter":9987,
			"wrapS":33071,
			"wrapT":33071
		}
	],
	"buffers":[
		{
			"byteLength":967320,
			"uri":"retro.bin"
		}
	]
}
