{
	"asset":{
		"generator":"Khronos glTF Blender I/O v3.5.30",
		"version":"2.0"
	},
	"extensionsUsed":[
		"KHR_materials_unlit"
	],
	"scene":0,
	"scenes":[
		{
			"name":"Scene",
			"nodes":[
				8,
				12
			]
		}
	],
	"nodes":[
		{
			"mesh":0,
			"name":"Box002_default_0"
		},
		{
			"children":[
				0
			],
			"name":"Box002",
			"rotation":[
				-0.70710688829422,
				0,
				0,
				0.7071066498756409
			]
		},
		{
			"mesh":1,
			"name":"Group18985_default_0"
		},
		{
			"children":[
				2
			],
			"name":"Group18985",
			"rotation":[
				-0.70710688829422,
				0,
				0,
				0.7071066498756409
			]
		},
		{
			"mesh":2,
			"name":"Object001_default_0"
		},
		{
			"children":[
				4
			],
			"name":"Object001",
			"rotation":[
				-0.70710688829422,
				0,
				0,
				0.7071066498756409
			]
		},
		{
			"children":[
				1,
				3,
				5
			],
			"name":"RootNode"
		},
		{
			"children":[
				6
			],
			"name":"1.FBX",
			"rotation":[
				0.70710688829422,
				0,
				0,
				0.7071066498756409
			]
		},
		{
			"children":[
				7
			],
			"name":"Sketchfab_model",
			"rotation":[
				-0.70710688829422,
				0,
				0,
				0.7071066498756409
			],
			"translation":[
				0.09500932693481445,
				0,
				-0.6181009411811829
			]
		},
		{
			"mesh":3,
			"name":"Object_2"
		},
		{
			"mesh":4,
			"name":"Object_3"
		},
		{
			"children":[
				9,
				10
			],
			"name":"desktop_shortwires.obj.cleaner.materialmerger.gles"
		},
		{
			"children":[
				11
			],
			"name":"Sketchfab_model.001",
			"rotation":[
				0,
				-0.7035484910011292,
				-0.7102917432785034,
				0.022477585822343826
			],
			"scale":[
				5,
				5,
				5.000000476837158
			],
			"translation":[
				0,
				-0.32893913984298706,
				2.6608519554138184
			]
		}
	],
	"materials":[
		{
			"doubleSided":true,
			"extensions":{
				"KHR_materials_unlit":{}
			},
			"name":"default",
			"pbrMetallicRoughness":{
				"baseColorTexture":{
					"index":0,
					"texCoord":0
				},
				"metallicFactor":0,
				"roughnessFactor":0.9
			}
		},
		{
			"doubleSided":true,
			"name":"None",
			"pbrMetallicRoughness":{}
		}
	],
	"meshes":[
		{
			"name":"Box002_default_0",
			"primitives":[
				{
					"attributes":{
						"POSITION":0,
						"TEXCOORD_0":1,
						"NORMAL":2
					},
					"indices":3,
					"material":0
				}
			]
		},
		{
			"name":"Group18985_default_0",
			"primitives":[
				{
					"attributes":{
						"POSITION":4,
						"TEXCOORD_0":5,
						"NORMAL":6
					},
					"indices":7,
					"material":0
				}
			]
		},
		{
			"name":"Object001_default_0",
			"primitives":[
				{
					"attributes":{
						"POSITION":8,
						"TEXCOORD_0":9,
						"NORMAL":10
					},
					"indices":11,
					"material":0
				}
			]
		},
		{
			"name":"Object_0",
			"primitives":[
				{
					"attributes":{
						"POSITION":12,
						"TEXCOORD_0":13,
						"NORMAL":14
					},
					"indices":15,
					"material":1
				}
			]
		},
		{
			"name":"Object_1",
			"primitives":[
				{
					"attributes":{
						"POSITION":16,
						"TEXCOORD_0":17,
						"NORMAL":18
					},
					"indices":19,
					"material":1
				}
			]
		}
	],
	"textures":[
		{
			"sampler":0,
			"source":0
		}
	],
	"images":[
		{
			"mimeType":"image/png",
			"name":"default_baseColor",
			"uri":"default_baseColor.png"
		}
	],
	"accessors":[
		{
			"bufferView":0,
			"componentType":5126,
			"count":2145,
			"max":[
				0.4604490101337433,
				1.4105160236358643,
				0.3757419288158417
			],
			"min":[
				-0.4604490101337433,
				-0.3642579913139343,
				-1.0053009986877441
			],
			"type":"VEC3"
		},
		{
			"bufferView":1,
			"componentType":5126,
			"count":2145,
			"type":"VEC2"
		},
		{
			"bufferView":2,
			"componentType":5126,
			"count":2145,
			"type":"VEC3"
		},
		{
			"bufferView":3,
			"componentType":5123,
			"count":11124,
			"type":"SCALAR"
		},
		{
			"bufferView":4,
			"componentType":5126,
			"count":272,
			"max":[
				0.31733599305152893,
				0.47673898935317993,
				-0.0806410014629364
			],
			"min":[
				-0.31733599305152893,
				-0.058437999337911606,
				-0.5076500177383423
			],
			"type":"VEC3"
		},
		{
			"bufferView":5,
			"componentType":5126,
			"count":272,
			"type":"VEC2"
		},
		{
			"bufferView":6,
			"componentType":5126,
			"count":272,
			"type":"VEC3"
		},
		{
			"bufferView":7,
			"componentType":5123,
			"count":1152,
			"type":"SCALAR"
		},
		{
			"bufferView":8,
			"componentType":5126,
			"count":130,
			"max":[
				0.1959719955921173,
				-0.12931400537490845,
				0.05310700088739395
			],
			"min":[
				-0.1959719955921173,
				-0.20747999846935272,
				-0.10322500020265579
			],
			"type":"VEC3"
		},
		{
			"bufferView":9,
			"componentType":5126,
			"count":130,
			"type":"VEC2"
		},
		{
			"bufferView":10,
			"componentType":5126,
			"count":130,
			"type":"VEC3"
		},
		{
			"bufferView":11,
			"componentType":5123,
			"count":672,
			"type":"SCALAR"
		},
		{
			"bufferView":12,
			"componentType":5126,
			"count":448,
			"max":[
				0.08351399749517441,
				-0.177496999502182,
				0.13024300336837769
			],
			"min":[
				-0.16256000101566315,
				-0.39213699102401733,
				-0.06348299980163574
			],
			"type":"VEC3"
		},
		{
			"bufferView":13,
			"componentType":5126,
			"count":448,
			"type":"VEC2"
		},
		{
			"bufferView":14,
			"componentType":5126,
			"count":448,
			"type":"VEC3"
		},
		{
			"bufferView":15,
			"componentType":5123,
			"count":606,
			"type":"SCALAR"
		},
		{
			"bufferView":16,
			"componentType":5126,
			"count":22009,
			"max":[
				0.35146600008010864,
				0.09704700112342834,
				0.1300390064716339
			],
			"min":[
				-0.35146600008010864,
				-0.5712090134620667,
				-0.13024300336837769
			],
			"type":"VEC3"
		},
		{
			"bufferView":17,
			"componentType":5126,
			"count":22009,
			"type":"VEC2"
		},
		{
			"bufferView":18,
			"componentType":5126,
			"count":22009,
			"type":"VEC3"
		},
		{
			"bufferView":19,
			"componentType":5123,
			"count":70938,
			"type":"SCALAR"
		}
	],
	"bufferViews":[
		{
			"buffer":0,
			"byteLength":25740,
			"byteOffset":0,
			"target":34962
		},
		{
			"buffer":0,
			"byteLength":17160,
			"byteOffset":25740,
			"target":34962
		},
		{
			"buffer":0,
			"byteLength":25740,
			"byteOffset":42900,
			"target":34962
		},
		{
			"buffer":0,
			"byteLength":22248,
			"byteOffset":68640,
			"target":34963
		},
		{
			"buffer":0,
			"byteLength":3264,
			"byteOffset":90888,
			"target":34962
		},
		{
			"buffer":0,
			"byteLength":2176,
			"byteOffset":94152,
			"target":34962
		},
		{
			"buffer":0,
			"byteLength":3264,
			"byteOffset":96328,
			"target":34962
		},
		{
			"buffer":0,
			"byteLength":2304,
			"byteOffset":99592,
			"target":34963
		},
		{
			"buffer":0,
			"byteLength":1560,
			"byteOffset":101896,
			"target":34962
		},
		{
			"buffer":0,
			"byteLength":1040,
			"byteOffset":103456,
			"target":34962
		},
		{
			"buffer":0,
			"byteLength":1560,
			"byteOffset":104496,
			"target":34962
		},
		{
			"buffer":0,
			"byteLength":1344,
			"byteOffset":106056,
			"target":34963
		},
		{
			"buffer":0,
			"byteLength":5376,
			"byteOffset":107400,
			"target":34962
		},
		{
			"buffer":0,
			"byteLength":3584,
			"byteOffset":112776,
			"target":34962
		},
		{
			"buffer":0,
			"byteLength":5376,
			"byteOffset":116360,
			"target":34962
		},
		{
			"buffer":0,
			"byteLength":1212,
			"byteOffset":121736,
			"target":34963
		},
		{
			"buffer":0,
			"byteLength":264108,
			"byteOffset":122948,
			"target":34962
		},
		{
			"buffer":0,
			"byteLength":176072,
			"byteOffset":387056,
			"target":34962
		},
		{
			"buffer":0,
			"byteLength":264108,
			"byteOffset":563128,
			"target":34962
		},
		{
			"buffer":0,
			"byteLength":141876,
			"byteOffset":827236,
			"target":34963
		}
	],
	"samplers":[
		{
			"magFilter":9729,
			"minFilter":9987
		}
	],
	"buffers":[
		{
			"byteLength":969112,
			"uri":"untitled.bin"
		}
	]
}
